<svg class="svg-icon" style="width: 1em; height: 1em;vertical-align: middle;fill: #4d5964;overflow: hidden;" viewBox="0 0 1024 1024" version="1.1" xmlns="http://www.w3.org/2000/svg">
<path d="M679.025573 260.392542 656.914996 236.677421l0 0c0 0-24.839735-26.63666-39.715537-42.97272-33.750685-37.080523-68.483744-32.69668-68.483744-32.69668-0.38374 0-7.928576 0-111.385856 0-116.510574 0-184.995341 98.856495-184.995341 98.856495L63.244928 259.864516l0 296.644187 100.67798 0c16.240893 0 22.611997-8.43102 22.611997-8.43102l311.902706-277.721209c0 0 8.671497-10.491958 25.917276-10.491958 17.246803 0 22.804379 7.80885 27.067472 10.827603l9.629311 10.731412 0.503467 0.551562 0.023536 0 43.858904 47.045479c19.785625 21.246907 52.338019 23.091928 72.699766 4.167926C698.450994 314.264497 698.834734 281.614889 679.025573 260.392542z"  fill="#896cfd"  />
<path d="M550.439986 784.572956c-14.372336-14.347776-39.116903-12.911054-55.285141 3.258207-16.168238 16.168238-17.605983 40.912805-3.257184 55.285141l11.92868 11.92868c14.372336 14.347776 39.116903 12.910031 55.285141-3.258207 16.168238-16.169261 17.605983-40.912805 3.258207-55.285141L550.439986 784.572956z" fill="#896cfd"  />
<path d="M692.223153 621.543905c-16.887622-16.911158-43.739177-17.534352-59.908438-1.366114-16.144702 16.144702-15.521508 42.998303 1.388627 59.909461l51.716872 51.692313c16.910135 16.935718 43.739177 17.534352 59.931974 1.413186 16.120143-16.192797 15.521508-43.020816-1.414209-59.931974L692.223153 621.543905z"   fill="#896cfd" />
<path d="M622.541117 705.357799c-13.125949-13.151531-36.912701-10.707876-53.080939 5.461385-16.144702 16.144702-18.588357 39.930431-5.436826 53.081962l40.21798 40.193421c13.151531 13.175067 36.912701 10.707876 53.105498-5.41329 16.121166-16.192797 18.588357-39.954991 5.41329-53.105498L622.541117 705.357799z"  fill="#896cfd"  />
<path d="M820.112891 590.428234l-56.410777-56.411801c-18.420535-18.444071-46.518476-20.289092-62.663178-4.096295-16.144702 16.144702-14.300704 44.194548 4.14439 62.639642l56.410777 56.387241c18.420535 18.444071 46.518476 20.313651 62.711274 4.192485C840.425519 636.945687 838.556962 608.848769 820.112891 590.428234z"  fill="#896cfd" />
<path d="M778.840906 259.865539c-2.109034-3.880377-4.192485-7.737218-6.299473-10.994402-36.265972-56.076156-101.06172-60.579727-121.949446-60.483536 13.151531 14.252609 26.925233 29.03222 26.948769 29.055756l22.10853 23.690562c14.563694 15.617699 22.445198 35.811624 22.181185 56.866149-0.264013 21.534456-8.934486 41.368176-24.480554 55.860239-14.300704 13.270235-33.056883 20.600177-52.817949 20.600177-22.445198 0-44.219107-9.55768-59.716057-26.205848l-43.884486-47.045479c-0.118704-0.119727-0.74292-0.814552-0.862647-0.958838l-8.04728-8.934486c-0.431835-0.360204-0.862647-0.719384-1.294482-1.102101-2.323928-1.988284-2.515287-2.131547-6.372128-2.131547-2.371 0-3.880377 0.62217-4.694929 1.077541-0.838088 1.293459-0.670266 0.64673-2.467191 2.275833L342.210477 447.231881l-6.011924 5.605671 0.167822 0.167822L186.87055 592.367399c-17.845437 16.648169-19.402909 44.00319-3.497661 61.058634 15.929808 17.077957 43.308365 17.390066 61.153802 0.789992l149.495826-139.387607 0.287549 0.312108c2.635013-1.916653 5.724375-3.281743 9.222035-3.281743 8.91095 0 16.096607 7.210215 16.096607 16.049534 0 5.461385-2.874467 10.036587-7.017834 12.95915L269.127995 674.624844c-17.845437 16.649192-19.402909 44.00319-3.496637 61.058634 15.928784 17.07898 43.308365 17.390066 61.153802 0.789992l142.046157-132.440381c2.706645-3.952009 7.042393-6.707772 12.192693-6.707772 8.383948 0 15.138792 6.779404 15.138792 15.090697 0 3.305279-1.269923 6.179746-3.042289 8.671497l0.167822 0.167822-0.766456 0.718361c-0.74292 0.862647-1.532913 1.581008-2.443655 2.275833L354.042967 751.086283c-17.845437 16.648169-19.401886 44.00319-3.496637 61.057611 15.928784 17.07898 43.308365 17.391089 61.153802 0.789992l161.688519-150.764726c0.023536-0.023536 0.048095-0.071631 0.096191-0.096191l19.425422-18.108426c1.12666-16.049534 7.378038-31.643698 19.451004-43.7402 12.911054-12.886495 30.181393-19.976984 48.673559-19.976984 0.048095 0 0.119727 0.023536 0.167822 0.023536l3.545756-3.305279c-6.467295-23.810289-1.294482-49.344848 16.311501-66.950831 12.432147-12.479219 29.318746-19.330254 47.548946-19.330254 20.120246 0 40.193421 8.527211 55.045687 23.378453l56.387241 56.411801c4.79112 4.76656 8.576329 10.083659 11.880585 15.59314 3.137457-10.17985 5.222955-20.528546 6.443759-29.559223l101.995999 0L960.362122 259.865539 778.840906 259.865539z"  /></svg>