<?xml version="1.0" encoding="utf-8"?>
<svg viewBox="0 0 500 500" xmlns="http://www.w3.org/2000/svg">
  <path d="M 336.709 113.138 L 324.84 100.792 C 324.84 100.792 311.505 86.924 303.52 78.419 C 285.403 59.114 266.759 61.395 266.759 61.395 C 266.552 61.395 262.502 61.395 206.966 61.395 C 144.423 61.395 107.661 112.864 107.661 112.864 L 19.766 113.58 L 11.887 115.371 L 6.157 122.61 L 6.157 257.338 L 8.663 261.933 L 14.115 266.948 L 60.201 267.306 C 68.919 267.306 72.339 262.916 72.339 262.916 L 239.769 118.326 C 239.769 118.326 244.424 112.864 253.681 112.864 C 262.94 112.864 265.923 116.929 268.212 118.501 L 273.38 124.088 L 273.65 124.374 L 273.663 124.374 L 297.206 148.869 C 307.828 159.931 325.302 160.891 336.232 151.038 C 347.136 141.186 347.343 124.188 336.709 113.138 Z" fill="#896cfd" style=""/>
  <path d="M 267.684 386.043 C 259.969 378.573 246.686 379.321 238.007 387.739 C 229.328 396.157 228.555 409.04 236.258 416.522 L 242.662 422.733 C 250.377 430.203 263.66 429.454 272.339 421.037 C 281.018 412.619 281.79 399.736 274.087 392.254 L 267.684 386.043 Z" fill="#896cfd" style=""/>
  <path d="M 343.793 301.165 C 334.728 292.361 320.314 292.036 311.635 300.454 C 302.968 308.859 303.302 322.84 312.38 331.645 L 340.141 358.558 C 349.219 367.375 363.621 367.686 372.313 359.293 C 380.966 350.862 380.646 336.895 371.553 328.09 L 343.793 301.165 Z" fill="#896cfd" style=""/>
  <path d="M 306.388 344.801 C 299.342 337.954 286.572 339.227 277.894 347.644 C 269.228 356.05 267.915 368.433 274.975 375.281 L 296.565 396.206 C 303.625 403.066 316.38 401.781 325.072 393.388 C 333.725 384.958 335.049 372.586 327.978 365.74 L 306.388 344.801 Z" fill="#896cfd" style=""/>
  <path d="M 412.445 284.965 L 382.164 255.595 C 372.275 245.993 357.192 245.032 348.526 253.462 C 339.86 261.868 340.849 276.472 350.751 286.075 L 381.032 315.432 C 390.919 325.035 406.003 326.008 414.696 317.615 C 423.348 309.184 422.346 294.556 412.445 284.965 Z" fill="#896cfd" style=""/>
  <path d="M 390.29 112.864 C 389.158 110.844 388.039 108.836 386.909 107.14 C 367.44 77.946 332.658 75.6 321.446 75.651 C 328.506 83.071 335.899 90.765 335.912 90.778 L 347.78 103.112 C 355.598 111.243 359.829 121.756 359.687 132.718 C 359.545 143.929 354.891 154.256 346.545 161.801 C 338.869 168.709 328.801 172.526 318.193 172.526 C 306.144 172.526 294.456 167.55 286.136 158.882 L 262.58 134.389 C 262.516 134.326 262.181 133.965 262.117 133.889 L 257.796 129.238 C 257.565 129.051 257.334 128.864 257.102 128.664 C 255.855 127.629 255.752 127.555 253.681 127.555 C 252.409 127.555 251.598 127.878 251.161 128.116 C 250.711 128.789 250.801 128.452 249.837 129.301 L 155.906 210.413 L 152.679 213.331 L 152.769 213.418 L 72.519 285.975 C 62.94 294.643 62.104 308.884 70.642 317.764 C 79.193 326.655 93.889 326.818 103.469 318.175 L 183.719 245.606 L 183.873 245.768 C 185.288 244.77 186.946 244.06 188.823 244.06 C 193.607 244.06 197.464 247.814 197.464 252.415 C 197.464 255.259 195.922 257.641 193.698 259.163 L 116.675 328.8 C 107.096 337.469 106.259 351.71 114.798 360.59 C 123.349 369.482 138.047 369.643 147.626 361.001 L 223.877 292.049 C 225.33 289.991 227.657 288.556 230.421 288.556 C 234.921 288.556 238.548 292.086 238.548 296.413 C 238.548 298.134 237.867 299.63 236.915 300.927 L 237.005 301.015 L 236.593 301.389 C 236.195 301.838 235.77 302.212 235.281 302.573 L 162.258 368.608 C 152.678 377.276 151.843 391.518 160.381 400.397 C 168.932 409.289 183.629 409.451 193.208 400.809 L 280.003 322.317 C 280.015 322.304 280.029 322.278 280.055 322.266 L 290.482 312.838 C 291.087 304.482 294.442 296.363 300.923 290.066 C 307.854 283.356 317.125 279.664 327.051 279.664 C 327.077 279.664 327.115 279.677 327.141 279.677 L 329.045 277.956 C 325.573 265.56 328.35 252.266 337.801 243.099 C 344.474 236.602 353.54 233.036 363.325 233.036 C 374.126 233.036 384.901 237.475 392.874 245.207 L 423.143 274.577 C 425.715 277.059 427.746 279.827 429.52 282.695 C 431.205 277.395 432.324 272.008 432.979 267.306 L 477.465 267.306 L 483.434 263.725 L 487.015 257.341 L 487.731 122.629 L 483.434 115.727 L 478.058 112.864 L 390.29 112.864 Z" style=""/>
</svg>